<svg width="14" height="14" viewBox="0 0 14 14" fill="none" xmlns="http://www.w3.org/2000/svg">
<path d="M11.7 4.55002H5.85005C5.13208 4.55002 4.55005 5.13205 4.55005 5.85002V11.7C4.55005 12.418 5.13208 13 5.85005 13H11.7C12.418 13 13 12.418 13 11.7V5.85002C13 5.13205 12.418 4.55002 11.7 4.55002Z" stroke="#070D21" stroke-linecap="round" stroke-linejoin="round"/>
<path d="M2.95 9.45H2.3C1.95522 9.45 1.62456 9.31304 1.38076 9.06924C1.13696 8.82544 1 8.49478 1 8.15V2.3C1 1.95522 1.13696 1.62456 1.38076 1.38076C1.62456 1.13696 1.95522 1 2.3 1H8.15C8.49478 1 8.82544 1.13696 9.06924 1.38076C9.31304 1.62456 9.45 1.95522 9.45 2.3V2.95" stroke="#070D21" stroke-linecap="round" stroke-linejoin="round"/>
</svg>
