<svg width="1479" height="1833" viewBox="0 0 1479 1833" fill="none" xmlns="http://www.w3.org/2000/svg">
<path d="M1478.98 755.94V998.26C1478.98 1019.8 1470.42 1040.46 1455.19 1055.69C1439.96 1070.92 1419.3 1079.48 1397.76 1079.48H1349.99C1341.18 1254.83 1196.22 1394.29 1018.68 1394.29H460.3C282.76 1394.29 137.8 1254.83 128.99 1079.48H81.22C59.6791 1079.48 39.0205 1070.92 23.7888 1055.69C8.55711 1040.46 0 1019.8 0 998.26V755.94C0 734.399 8.55711 713.74 23.7888 698.509C39.0205 683.277 59.6791 674.72 81.22 674.72H128.99C137.8 499.37 282.76 359.91 460.3 359.91H698.81V247.76H617.49L780.2 0V182.81H861.49L745.18 359.91H1018.65C1196.19 359.91 1341.15 499.37 1349.96 674.72H1397.73C1408.4 674.716 1418.96 676.814 1428.82 680.894C1438.68 684.974 1447.64 690.956 1455.18 698.498C1462.73 706.041 1468.71 714.995 1472.79 724.851C1476.88 734.707 1478.98 745.271 1478.98 755.94Z" fill="url(#paint0_linear_1070_918)"/>
<g style="mix-blend-mode:screen" opacity="0.1">
<path d="M1301.49 739.7V783.85C875.768 590.3 483.358 602.12 184.898 670.45C216.698 522.22 348.468 411.1 506.198 411.1H972.878C1154.32 411.09 1301.49 558.21 1301.49 739.7Z" fill="white"/>
</g>
<path d="M1036.24 546.29H442.741C345.069 546.29 265.891 625.469 265.891 723.14V1031.05C265.891 1128.72 345.069 1207.9 442.741 1207.9H1036.24C1133.91 1207.9 1213.09 1128.72 1213.09 1031.05V723.14C1213.09 625.469 1133.91 546.29 1036.24 546.29Z" fill="white"/>
<path d="M469.878 722.13H452.768C419.388 722.13 392.328 749.19 392.328 782.57V897.06C392.328 930.44 419.388 957.5 452.768 957.5H469.878C503.258 957.5 530.318 930.44 530.318 897.06V782.57C530.318 749.19 503.258 722.13 469.878 722.13Z" fill="#121826"/>
<path d="M1009.09 957.5H1026.2C1059.58 957.5 1086.64 930.44 1086.64 897.06V782.57C1086.64 749.19 1059.58 722.13 1026.2 722.13H1009.09C975.71 722.13 948.651 749.19 948.651 782.57V897.06C948.651 930.44 975.71 957.5 1009.09 957.5Z" fill="#121826"/>
<path d="M749.05 1095.47C747.34 1095.47 745.6 1095.47 743.86 1095.39C742.12 1095.31 740.38 1095.47 738.67 1095.47C702.584 1095.47 667.328 1084.65 637.464 1064.39C607.599 1044.13 584.502 1015.38 571.16 981.85L632.33 957.5C640.734 978.831 655.381 997.128 674.354 1010C693.328 1022.87 715.744 1029.71 738.67 1029.63C740 1029.63 741.37 1029.63 742.74 1029.56H743.86H744.98C746.35 1029.56 747.71 1029.63 749.05 1029.63C771.975 1029.71 794.391 1022.87 813.363 1010C832.335 997.128 846.979 978.831 855.38 957.5L916.56 981.85C903.215 1015.38 880.116 1044.13 850.253 1064.38C820.39 1084.64 785.135 1095.47 749.05 1095.47Z" fill="#121826"/>
<path d="M983.82 1777.21V1829.4H940.07V1777.21H983.82Z" fill="white"/>
<path d="M1065.55 1829.4H1015.67L1106.6 1599.17C1116.2 1575 1133.85 1565.79 1161.09 1565.79C1187.95 1565.79 1205.6 1575 1214.81 1599.17L1302.3 1829.4H1252.03L1173.37 1621.04C1171.07 1614.9 1166.85 1612.22 1160.71 1612.22C1154.57 1612.22 1150.35 1614.9 1147.71 1621.04L1065.55 1829.4Z" fill="white"/>
<path d="M1385.95 1570.39V1829.39H1340.67V1570.39H1385.95Z" fill="white"/>
<path d="M238.78 1832.7C220.033 1832.7 202.643 1829.37 186.61 1822.71C170.823 1815.8 157.01 1806.31 145.17 1794.22C133.33 1781.89 124.203 1767.7 117.79 1751.67C111.377 1735.39 108.17 1718 108.17 1699.5C108.17 1681 111.377 1663.73 117.79 1647.7C124.203 1631.42 133.33 1617.24 145.17 1605.15C157.01 1593.06 170.823 1583.57 186.61 1576.66C202.643 1569.75 220.033 1566.3 238.78 1566.3C259.747 1566.3 277.877 1569.75 293.17 1576.66C308.463 1583.57 322.03 1592.94 333.87 1604.78L305.01 1633.64C297.363 1625.25 287.99 1618.72 276.89 1614.03C266.037 1609.34 253.333 1607 238.78 1607C225.953 1607 214.237 1609.22 203.63 1613.66C193.023 1618.1 183.773 1624.51 175.88 1632.9C168.233 1641.04 162.313 1650.78 158.12 1662.13C153.927 1673.48 151.83 1685.93 151.83 1699.5C151.83 1713.07 153.927 1725.52 158.12 1736.87C162.313 1748.22 168.233 1758.08 175.88 1766.47C183.773 1774.61 193.023 1780.9 203.63 1785.34C214.237 1789.78 225.953 1792 238.78 1792C254.567 1792 267.887 1789.66 278.74 1784.97C289.84 1780.04 299.213 1773.38 306.86 1764.99L335.72 1793.85C323.88 1805.94 309.943 1815.43 293.91 1822.34C277.877 1829.25 259.5 1832.7 238.78 1832.7ZM489.868 1829V1726.51C489.868 1714.67 486.045 1704.93 478.398 1697.28C470.998 1689.63 461.378 1685.81 449.538 1685.81C441.645 1685.81 434.615 1687.54 428.448 1690.99C422.282 1694.44 417.472 1699.25 414.018 1705.42C410.565 1711.59 408.838 1718.62 408.838 1726.51L392.928 1717.63C392.928 1704.06 395.888 1692.1 401.808 1681.74C407.728 1671.13 415.868 1662.87 426.228 1656.95C436.835 1650.78 448.675 1647.7 461.748 1647.7C475.068 1647.7 486.908 1650.66 497.268 1656.58C507.628 1662.5 515.768 1670.76 521.688 1681.37C527.608 1691.73 530.568 1703.82 530.568 1717.63V1829H489.868ZM368.138 1829V1562.6H408.838V1829H368.138ZM646.297 1832.7C630.264 1832.7 615.711 1828.63 602.637 1820.49C589.811 1812.35 579.574 1801.37 571.927 1787.56C564.527 1773.5 560.827 1757.84 560.827 1740.57C560.827 1723.06 564.527 1707.39 571.927 1693.58C579.574 1679.52 589.811 1668.42 602.637 1660.28C615.711 1651.89 630.264 1647.7 646.297 1647.7C659.864 1647.7 671.827 1650.66 682.187 1656.58C692.794 1662.25 701.181 1670.15 707.347 1680.26C713.514 1690.37 716.597 1701.84 716.597 1714.67V1765.73C716.597 1778.56 713.514 1790.03 707.347 1800.14C701.427 1810.25 693.164 1818.27 682.557 1824.19C671.951 1829.86 659.864 1832.7 646.297 1832.7ZM652.957 1794.22C668.004 1794.22 680.091 1789.16 689.217 1779.05C698.591 1768.94 703.277 1755.99 703.277 1740.2C703.277 1729.59 701.181 1720.22 696.987 1712.08C692.794 1703.94 686.874 1697.65 679.227 1693.21C671.827 1688.52 663.071 1686.18 652.957 1686.18C643.091 1686.18 634.334 1688.52 626.687 1693.21C619.287 1697.65 613.367 1703.94 608.927 1712.08C604.734 1720.22 602.637 1729.59 602.637 1740.2C602.637 1750.81 604.734 1760.18 608.927 1768.32C613.367 1776.46 619.287 1782.87 626.687 1787.56C634.334 1792 643.091 1794.22 652.957 1794.22ZM700.687 1829V1781.27L707.717 1737.98L700.687 1695.06V1651.4H741.387V1829H700.687ZM813.566 1829V1577.4H854.266V1829H813.566ZM771.016 1688.4V1651.4H896.816V1688.4H771.016Z" fill="white"/>
<defs>
<linearGradient id="paint0_linear_1070_918" x1="469.65" y1="1556.14" x2="1027.72" y2="151.78" gradientUnits="userSpaceOnUse">
<stop stop-color="#FF6ED0"/>
<stop offset="0.51" stop-color="#A52BFF"/>
<stop offset="1" stop-color="#00EDFF"/>
</linearGradient>
</defs>
</svg>
