<svg width="120" height="38" viewBox="0 0 120 38" fill="none" xmlns="http://www.w3.org/2000/svg">
<path d="M40 20.4482V27.003C40 27.5857 39.7685 28.1445 39.3566 28.5565C38.9447 28.9685 38.3859 29.2 37.8034 29.2H36.5114C36.2731 33.9433 32.3526 37.7157 27.5509 37.7157H12.4491C7.64743 37.7157 3.72689 33.9433 3.48862 29.2H2.19665C1.61406 29.2 1.05534 28.9685 0.643384 28.5565C0.231433 28.1445 0 27.5857 0 27.003V20.4482C0 19.8656 0.231433 19.3067 0.643384 18.8947C1.05534 18.4827 1.61406 18.2512 2.19665 18.2512H3.48862C3.72689 13.508 7.64743 9.7356 12.4491 9.7356H18.8998V6.70193H16.7004L21.101 0V4.94503H23.2996L20.1539 9.7356H27.5501C32.3518 9.7356 36.2723 13.508 36.5106 18.2512H37.8025C38.0911 18.2511 38.3767 18.3079 38.6434 18.4182C38.9101 18.5286 39.1524 18.6904 39.3563 18.8944C39.5605 19.0985 39.7222 19.3407 39.8326 19.6073C39.9432 19.8739 40 20.1596 40 20.4482Z" fill="url(#paint0_linear_4_315)"/>
<g style="mix-blend-mode:screen" opacity="0.1">
<path d="M35.1995 20.0089V21.2032C23.6856 15.9676 13.0726 16.2873 5.00055 18.1357C5.8606 14.126 9.42441 11.1202 13.6903 11.1202H26.312C31.2192 11.12 35.1995 15.0996 35.1995 20.0089Z" fill="white"/>
</g>
<path d="M28.0259 14.7772H11.9743C9.33271 14.7772 7.19128 16.919 7.19128 19.561V27.89C7.19128 30.532 9.33271 32.6738 11.9743 32.6738H28.0259C30.6674 32.6738 32.8089 30.532 32.8089 27.89V19.561C32.8089 16.919 30.6674 14.7772 28.0259 14.7772Z" fill="white"/>
<path d="M12.708 19.5337H12.2453C11.3425 19.5337 10.6106 20.2657 10.6106 21.1686V24.2656C10.6106 25.1685 11.3425 25.9005 12.2453 25.9005H12.708C13.6108 25.9005 14.3427 25.1685 14.3427 24.2656V21.1686C14.3427 20.2657 13.6108 19.5337 12.708 19.5337Z" fill="#121826"/>
<path d="M27.2919 25.9005H27.7547C28.6574 25.9005 29.3893 25.1685 29.3893 24.2656V21.1686C29.3893 20.2657 28.6574 19.5337 27.7547 19.5337H27.2919C26.3891 19.5337 25.6573 20.2657 25.6573 21.1686V24.2656C25.6573 25.1685 26.3891 25.9005 27.2919 25.9005Z" fill="#121826"/>
<path d="M20.2589 29.6325C20.2126 29.6325 20.1656 29.6325 20.1185 29.6304C20.0715 29.6282 20.0244 29.6325 19.9781 29.6325C19.0022 29.6325 18.0487 29.3399 17.241 28.7918C16.4332 28.2438 15.8086 27.4661 15.4477 26.5591L17.1021 25.9004C17.3294 26.4774 17.7255 26.9724 18.2387 27.3206C18.7518 27.6687 19.3581 27.8537 19.9781 27.8516C20.0141 27.8516 20.0512 27.8516 20.0882 27.8497H20.1185H20.1488C20.1859 27.8497 20.2226 27.8516 20.2589 27.8516C20.8789 27.8537 21.4852 27.6687 21.9983 27.3206C22.5114 26.9724 22.9074 26.4774 23.1346 25.9004L24.7893 26.5591C24.4284 27.4661 23.8036 28.2438 22.996 28.7916C22.1883 29.3396 21.2348 29.6325 20.2589 29.6325Z" fill="#121826"/>
<path d="M97.9708 27.7588V30.6184H95.5741V27.7588H97.9708Z" fill="#121826"/>
<path d="M102.448 30.6184H99.7153L104.697 18.0037C105.223 16.6794 106.189 16.1748 107.682 16.1748C109.153 16.1748 110.12 16.6794 110.625 18.0037L115.418 30.6184H112.664L108.354 19.202C108.228 18.8656 107.997 18.7187 107.661 18.7187C107.325 18.7187 107.093 18.8656 106.949 19.202L102.448 30.6184Z" fill="#121826"/>
<path d="M120 16.4268V30.6178H117.519V16.4268H120Z" fill="#121826"/>
<path d="M57.1552 30.7992C56.1282 30.7992 55.1755 30.6168 54.2972 30.2519C53.4323 29.8732 52.6756 29.3533 52.027 28.6908C51.3783 28.0153 50.8783 27.2378 50.527 26.3595C50.1757 25.4675 50 24.5146 50 23.501C50 22.4873 50.1757 21.5411 50.527 20.6628C50.8783 19.7708 51.3783 18.9938 52.027 18.3314C52.6756 17.669 53.4323 17.149 54.2972 16.7704C55.1755 16.3918 56.1282 16.2027 57.1552 16.2027C58.3038 16.2027 59.297 16.3918 60.1348 16.7704C60.9726 17.149 61.7158 17.6624 62.3645 18.3111L60.7834 19.8924C60.3645 19.4327 59.851 19.0749 59.2429 18.8179C58.6484 18.561 57.9524 18.4328 57.1552 18.4328C56.4525 18.4328 55.8106 18.5544 55.2296 18.7977C54.6485 19.0409 54.1417 19.3922 53.7093 19.8519C53.2904 20.2979 52.9661 20.8315 52.7364 21.4534C52.5067 22.0753 52.3918 22.7575 52.3918 23.501C52.3918 24.2445 52.5067 24.9267 52.7364 25.5485C52.9661 26.1704 53.2904 26.7107 53.7093 27.1704C54.1417 27.6164 54.6485 27.961 55.2296 28.2043C55.8106 28.4476 56.4525 28.5692 57.1552 28.5692C58.02 28.5692 58.7497 28.441 59.3443 28.184C59.9524 27.9139 60.4658 27.549 60.8848 27.0893L62.4658 28.6706C61.8172 29.333 61.0537 29.853 60.1753 30.2316C59.297 30.6102 58.2903 30.7992 57.1552 30.7992ZM70.9104 30.5965V24.9809C70.9104 24.3322 70.701 23.7985 70.2821 23.3793C69.8767 22.9602 69.3497 22.7509 68.7011 22.7509C68.2687 22.7509 67.8835 22.8457 67.5457 23.0347C67.2079 23.2237 66.9444 23.4873 66.7552 23.8253C66.566 24.1634 66.4714 24.5486 66.4714 24.9809L65.5998 24.4944C65.5998 23.7508 65.762 23.0955 66.0863 22.5279C66.4106 21.9465 66.8565 21.494 67.4241 21.1696C68.0052 20.8315 68.6538 20.6628 69.37 20.6628C70.0997 20.6628 70.7483 20.825 71.3158 21.1493C71.8834 21.4737 72.3293 21.9263 72.6536 22.5076C72.9779 23.0752 73.1401 23.7377 73.1401 24.4944V30.5965H70.9104ZM64.2417 30.5965V16H66.4714V30.5965H64.2417ZM79.48 30.7992C78.6017 30.7992 77.8045 30.5762 77.0882 30.1302C76.3856 29.6842 75.8248 29.0826 75.4059 28.3259C75.0005 27.5556 74.7978 26.6975 74.7978 25.7513C74.7978 24.7919 75.0005 23.9333 75.4059 23.1766C75.8248 22.4062 76.3856 21.7981 77.0882 21.3521C77.8045 20.8924 78.6017 20.6628 79.48 20.6628C80.2233 20.6628 80.8786 20.825 81.4462 21.1493C82.0273 21.46 82.4867 21.8928 82.8245 22.4468C83.1624 23.0007 83.3313 23.6292 83.3313 24.3322V27.1298C83.3313 27.8328 83.1624 28.4613 82.8245 29.0152C82.5002 29.5692 82.0475 30.0086 81.4665 30.3329C80.8854 30.6436 80.2233 30.7992 79.48 30.7992ZM79.8449 28.6908C80.6692 28.6908 81.3314 28.4136 81.8313 27.8597C82.3448 27.3057 82.6016 26.5962 82.6016 25.731C82.6016 25.1497 82.4867 24.6363 82.257 24.1903C82.0273 23.7443 81.703 23.3996 81.284 23.1563C80.8786 22.8994 80.399 22.7712 79.8449 22.7712C79.3044 22.7712 78.8247 22.8994 78.4058 23.1563C78.0004 23.3996 77.6761 23.7443 77.4328 24.1903C77.2031 24.6363 77.0882 25.1497 77.0882 25.731C77.0882 26.3123 77.2031 26.8257 77.4328 27.2717C77.6761 27.7177 78.0004 28.069 78.4058 28.3259C78.8247 28.5692 79.3044 28.6908 79.8449 28.6908ZM82.4597 30.5965V27.9813L82.8448 25.6094L82.4597 23.2577V20.8655H84.6893V30.5965H82.4597ZM88.6435 30.5965V16.8109H90.8731V30.5965H88.6435ZM86.3125 22.8928V20.8655H93.2041V22.8928H86.3125Z" fill="#121826"/>
<defs>
<linearGradient id="paint0_linear_4_315" x1="12.702" y1="42.0937" x2="27.7996" y2="4.10736" gradientUnits="userSpaceOnUse">
<stop stop-color="#FF6ED0"/>
<stop offset="0.51" stop-color="#A52BFF"/>
<stop offset="1" stop-color="#00EDFF"/>
</linearGradient>
</defs>
</svg>
